<?xml version="1.0" encoding="UTF-8" standalone="no"?>
<!-- Created with Inkscape (http://www.inkscape.org/) -->

<svg
   width="12mm"
   height="12mm"
   viewBox="0 0 12 12"
   version="1.1"
   id="svg5"
   xmlns="http://www.w3.org/2000/svg"
   xmlns:svg="http://www.w3.org/2000/svg">
  <defs
     id="defs2" />
  <g
     id="layer1"
     transform="translate(-111.06143,-128.04194)">
    <path
       d="m 117.06143,128.04194 c -3.3136,0 -6,2.6864 -6,6 0,3.3136 2.6864,6 6,6 3.3136,0 6,-2.6864 6,-6 0,-3.3136 -2.6864,-6 -6,-6"
       fill="#57c9f4"
       id="path1117"
       style="fill:#6e1e52;fill-opacity:1" />
    <path
       d="m 121.09283,132.46894 c -0.2226,0.72567 -0.60713,2.443 -3.314,2.7284 0,0 1.7801,0.84208 1.9061,2.4483 0,0 -1.5674,0.30939 -2.564,-1.3257 0,0 -0.0628,-0.0896 -0.11924,0 -0.9966,1.6351 -2.564,1.3257 -2.564,1.3257 0.12559,-1.6062 1.9061,-2.4483 1.9061,-2.4483 -2.7069,-0.2854 -3.0917,-2.0027 -3.314,-2.7284 -0.23707,-0.94121 0.16933,-0.94121 0.16933,-0.94121 0,0 -0.43533,0.4766 1.2192,0.56374 1.2883,0.0681 2.1347,0.96696 2.4469,1.3621 v -7e-4 c 0,0 0.14605,0.21625 0.33408,0.0762 0.25294,-0.33973 1.1254,-1.3649 2.5051,-1.4376 1.6545,-0.0871 1.2192,-0.56374 1.2192,-0.56374 0,0 0.4064,0 0.16933,0.94121 m -4.0315,-4.427 c -3.3136,0 -6,2.686 -6,5.9997 0,3.314 2.6864,6 6,6 3.3136,0 6,-2.686 6,-6 0,-3.3136 -2.6864,-5.9997 -6,-5.9997"
       fill="#dd3da5"
       id="path1520" />
  </g>
</svg>
