<?xml version="1.0" encoding="UTF-8" standalone="no"?>
<!-- Created with Inkscape (http://www.inkscape.org/) -->

<svg
   width="12mm"
   height="12mm"
   viewBox="0 0 12 12"
   version="1.1"
   id="svg5"
   xmlns="http://www.w3.org/2000/svg"
   xmlns:svg="http://www.w3.org/2000/svg">
  <defs
     id="defs2" />
  <g
     id="layer1"
     transform="translate(-111.06143,-128.04194)">
    <path
       d="m 117.06143,128.04194 c -3.3136,0 -6,2.6864 -6,6 0,3.3136 2.6864,6 6,6 3.3136,0 6,-2.6864 6,-6 0,-3.3136 -2.6864,-6 -6,-6"
       fill="#57c9f4"
       id="path1117"
       style="fill:#1e5c3b;fill-opacity:1" />
    <path
       d="m 120.80754,132.60964 c -0.18732,1.6489 -0.59831,3.1083 -0.74577,3.4167 -0.14781,0.30833 -0.3429,0.27164 -0.3429,0.27164 h -5.3298 c 0,0 -0.15064,0.0109 -0.3429,-0.27164 -0.25012,-0.36901 -0.60325,-1.9032 -0.7373,-3.4226 0,0 -0.0222,-0.1965 0.0963,-0.25541 0.0836,-0.0416 1.1328,0.756 2.0204,1.4351 0,0 1.2333,-2.0197 1.3885,-2.2165 0.10266,-0.13018 0.1912,-0.19438 0.23954,-0.19932 0.0808,-3.5e-4 0.13758,0.0691 0.24024,0.19932 0.15487,0.19685 1.3885,2.2165 1.3885,2.2165 0.88759,-0.6791 1.9272,-1.4418 2.0204,-1.4351 0.15416,0.0113 0.10478,0.26141 0.10478,0.26141 m -3.7461,-4.5678 c -3.314,0 -6,2.6864 -6,6 0,3.3136 2.686,5.9997 6,5.9997 3.3133,0 6,-2.686 6,-5.9997 0,-3.3136 -2.6868,-6 -6,-6"
       fill="#3dba77"
       id="path2961" />
  </g>
</svg>
