<?xml version="1.0" encoding="UTF-8" standalone="no"?>
<!-- Created with Inkscape (http://www.inkscape.org/) -->

<svg
   width="12mm"
   height="12mm"
   viewBox="0 0 12 12"
   version="1.1"
   id="svg5"
   xmlns="http://www.w3.org/2000/svg"
   xmlns:svg="http://www.w3.org/2000/svg">
  <defs
     id="defs2" />
  <g
     id="layer1"
     transform="translate(-111.06143,-128.04194)">
    <path
       d="m 117.06143,128.04194 c -3.3136,0 -6,2.6864 -6,6 0,3.3136 2.6864,6 6,6 3.3136,0 6,-2.6864 6,-6 0,-3.3136 -2.6864,-6 -6,-6"
       fill="#57c9f4"
       id="path1117"
       style="fill:#751215;fill-opacity:1" />
    <path
       d="m 117.22225,137.48544 c 0,0 -2.099,0.18909 -2.388,-2.2458 0,0 -0.0942,-0.96062 1.0079,-2.897 1.0008,-1.759 0.52246,-2.4508 0.42616,-2.5633 -0.0102,-0.0116 -0.0169,-0.0187 -0.0169,-0.0187 0,0 0.007,0.007 0.0169,0.0187 0.16651,0.18768 1.5702,1.826 1.2739,3.3817 0,0 0.56691,-0.86572 0.55139,-1.5113 0,0 1.1804,1.433 1.1963,3.4477 0.0159,2.0154 -1.1755,2.3566 -2.0676,2.388 m -0.16087,-9.4435 c -3.314,0 -6,2.6864 -6,6 0,3.314 2.686,6 6,6 3.3136,0 6,-2.686 6,-6 0,-3.3136 -2.6864,-6 -6,-6"
       fill="#ee252b"
       id="path4163" />
  </g>
</svg>
