<?xml version="1.0" encoding="UTF-8" standalone="no"?>
<!-- Created with Inkscape (http://www.inkscape.org/) -->

<svg
   width="12mm"
   height="12mm"
   viewBox="0 0 12 12"
   version="1.1"
   id="svg5"
   xmlns="http://www.w3.org/2000/svg"
   xmlns:svg="http://www.w3.org/2000/svg">
  <defs
     id="defs2" />
  <g
     id="layer1"
     transform="translate(-111.06143,-128.04194)">
    <path
       d="m 117.06143,128.04194 c -3.3136,0 -6,2.6864 -6,6 0,3.3136 2.6864,6 6,6 3.3136,0 6,-2.6864 6,-6 0,-3.3136 -2.6864,-6 -6,-6"
       fill="#57c9f4"
       id="path1117"
       style="fill:#805b04;fill-opacity:1" />
    <path
       d="m 120.64393,132.20864 c 0,0 -0.45685,-0.0875 -0.97155,0.65088 -0.51506,0.73836 -0.63147,1.875 -1.1659,2.788 -0.5341,0.91334 -1.2531,1.4668 -2.3315,1.4668 -1.0784,0 -2.2539,-0.5147 -2.1953,-1.9914 0.0582,-1.4767 0.6216,-1.9089 0.6216,-1.9089 l 2.1668,-0.002 c 0.65052,0.75777 0.59231,1.1053 0.63112,1.1924 0.0388,0.0875 0.30127,0.10689 0.43709,-0.097 0.13617,-0.2039 0.2039,-1.0492 1.1077,-1.7388 0.90311,-0.69003 1.7,-0.54187 1.7,-0.54187 z m -3.5825,-4.1667 c -3.3136,0 -6,2.6864 -6,6 0,3.3136 2.6864,6 6,6 3.3136,0 6,-2.6864 6,-6 0,-3.3136 -2.6864,-6 -6,-6"
       fill="#ffb609"
       id="path4900" />
  </g>
</svg>
